<?xml version="1.0" encoding="UTF-8"?>
<svg xmlns="http://www.w3.org/2000/svg" xmlns:xlink="http://www.w3.org/1999/xlink" width="50px" height="50px" viewBox="0 0 50 50" version="1.1">
<g id="surface1">
<path style=" stroke:none;fill-rule:nonzero;fill:rgb(0%,0%,0%);fill-opacity:1;" d="M 17.699219 9.261719 C 16.40625 9.316406 14.378906 9.5 12.9375 9.695312 C 12.054688 9.8125 10.582031 10.0625 10.492188 10.113281 C 10.449219 10.132812 10.398438 10.234375 10.386719 10.335938 C 10.371094 10.4375 10.191406 11.5 9.992188 12.695312 C 8.796875 19.75 7.9375 26.425781 7.304688 33.519531 C 7.179688 34.890625 7.007812 37.023438 6.953125 37.792969 C 6.9375 38.023438 6.917969 38.28125 6.90625 38.375 C 6.878906 38.570312 6.867188 38.574219 7.445312 38.234375 C 8.039062 37.890625 9.757812 37.054688 10.742188 36.625 C 11.1875 36.429688 11.617188 36.246094 11.695312 36.207031 C 12.234375 35.957031 13.789062 35.308594 13.804688 35.320312 C 13.8125 35.332031 13.789062 35.46875 13.746094 35.625 C 13.46875 36.683594 13.257812 40.015625 13.289062 42.816406 L 13.304688 44.15625 L 13.519531 43.820312 C 16.167969 39.648438 18.296875 36.566406 19.242188 35.527344 L 19.496094 35.25 L 21.796875 35.269531 C 23.664062 35.289062 24.296875 35.3125 25.148438 35.394531 C 28.28125 35.707031 30.507812 36.136719 33.460938 36.996094 C 34.070312 37.171875 34.578125 37.308594 34.589844 37.300781 C 34.601562 37.289062 34.921875 36.632812 35.304688 35.839844 C 38.363281 29.453125 42.105469 23.09375 46.152344 17.390625 C 46.445312 16.976562 46.695312 16.617188 46.710938 16.582031 C 46.734375 16.515625 45.09375 15.621094 43.507812 14.847656 C 39.875 13.078125 36.402344 11.796875 32.640625 10.839844 C 29.1875 9.960938 25.851562 9.453125 22.320312 9.277344 C 21.429688 9.234375 18.589844 9.222656 17.699219 9.261719 Z M 24.3125 14.890625 C 24.417969 14.941406 24.578125 15.082031 24.683594 15.195312 C 24.863281 15.40625 25.242188 16.132812 25.242188 16.265625 C 25.242188 16.304688 25.265625 16.359375 25.289062 16.382812 C 25.414062 16.519531 25.617188 17.765625 25.6875 18.832031 C 25.765625 20.007812 25.71875 24.355469 25.617188 25.230469 C 25.359375 27.402344 24.957031 28.570312 24.175781 29.351562 C 23.925781 29.59375 23.796875 29.683594 23.617188 29.734375 C 22.992188 29.90625 22.601562 29.449219 22.363281 28.265625 C 22.203125 27.453125 21.875 24.757812 21.875 24.21875 C 21.875 23.984375 21.976562 23.992188 20.773438 24.121094 C 19.875 24.214844 19.054688 24.339844 18.40625 24.492188 C 18.234375 24.53125 18.039062 24.574219 17.972656 24.589844 L 17.855469 24.613281 L 17.890625 25.578125 C 17.929688 26.71875 17.859375 28.445312 17.753906 28.9375 C 17.59375 29.691406 17.320312 30.1875 16.921875 30.453125 C 16.441406 30.78125 15.804688 30.621094 15.386719 30.0625 C 15.085938 29.667969 14.875 29.132812 14.511719 27.882812 C 14.304688 27.179688 13.867188 25.414062 13.867188 25.304688 C 13.867188 25.21875 13.8125 25.203125 13.394531 25.175781 C 12.144531 25.085938 11.492188 24.785156 11.671875 24.371094 C 11.792969 24.070312 12.347656 23.664062 13.003906 23.382812 C 13.207031 23.300781 13.378906 23.210938 13.378906 23.195312 C 13.378906 23.179688 13.289062 22.726562 13.183594 22.1875 C 12.828125 20.429688 12.597656 18.980469 12.597656 18.496094 C 12.597656 17.125 13.375 15.816406 14.292969 15.625 C 14.898438 15.5 15.527344 15.855469 15.992188 16.582031 C 16.59375 17.519531 16.933594 18.691406 17.328125 21.136719 C 17.4375 21.792969 17.53125 22.335938 17.539062 22.34375 C 17.546875 22.351562 17.847656 22.304688 18.199219 22.242188 C 19.132812 22.066406 20.273438 21.921875 21.011719 21.882812 L 21.65625 21.851562 L 21.644531 21.703125 C 21.59375 21.035156 21.625 19.589844 21.699219 19.066406 C 21.890625 17.75 22.09375 16.996094 22.46875 16.234375 C 22.808594 15.554688 23.199219 15.0625 23.558594 14.878906 C 23.757812 14.769531 24.085938 14.773438 24.3125 14.890625 Z M 36.453125 16.332031 C 36.761719 16.484375 37.148438 16.859375 37.261719 17.117188 C 37.714844 18.140625 37.300781 20.859375 36.050781 25.074219 C 35.492188 26.957031 35.25 27.554688 34.859375 28 C 34.222656 28.714844 33.320312 28.472656 33.023438 27.5 C 32.882812 27.050781 32.90625 25.601562 33.078125 24.242188 C 33.8125 18.304688 34.976562 15.589844 36.453125 16.332031 Z M 29.96875 20.414062 C 30.632812 20.738281 30.617188 21.722656 29.929688 22.070312 C 29.664062 22.207031 29.328125 22.234375 28.925781 22.152344 C 27.804688 21.914062 27.453125 21.21875 28.167969 20.667969 C 28.613281 20.328125 29.523438 20.199219 29.96875 20.414062 Z M 29.574219 22.992188 C 29.863281 23.203125 29.976562 23.472656 30.03125 24.101562 C 30.09375 24.796875 30.058594 25.484375 29.878906 27.074219 C 29.789062 27.832031 29.59375 28.882812 29.488281 29.179688 C 29.359375 29.515625 29.019531 29.902344 28.773438 29.984375 C 28.484375 30.078125 28.054688 30.019531 27.820312 29.851562 C 27.335938 29.511719 27.304688 29.34375 27.285156 26.855469 C 27.269531 24.742188 27.28125 24.59375 27.546875 24.027344 C 27.730469 23.648438 28.195312 23.167969 28.5625 22.984375 C 28.941406 22.792969 29.304688 22.796875 29.574219 22.992188 Z M 33.835938 29.136719 C 34.175781 29.300781 34.605469 29.695312 34.722656 29.957031 C 34.921875 30.386719 34.785156 30.785156 34.375 30.996094 C 34.1875 31.09375 34.101562 31.109375 33.789062 31.09375 C 32.984375 31.050781 32.28125 30.484375 32.273438 29.878906 C 32.273438 29.785156 32.335938 29.585938 32.414062 29.4375 C 32.59375 29.078125 32.855469 28.9375 33.277344 28.976562 C 33.441406 28.992188 33.6875 29.0625 33.835938 29.136719 Z M 33.835938 29.136719 "/>
</g>
</svg>
