<?xml version="1.0" encoding="UTF-8"?>
<svg xmlns="http://www.w3.org/2000/svg" xmlns:xlink="http://www.w3.org/1999/xlink" width="75px" height="100px" viewBox="0 0 75 99" version="1.1">
<g id="surface1">
<path style=" stroke:none;fill-rule:nonzero;fill:rgb(0%,0%,0%);fill-opacity:1;" d="M 36.628906 16.988281 C 32.671875 17.234375 29.175781 17.691406 25.585938 18.425781 C 15.261719 20.542969 8.816406 23.570312 5.148438 28.015625 C 2.148438 31.648438 0.488281 36.402344 0.0898438 42.519531 C -0.289062 48.339844 1.390625 53.648438 4.917969 57.824219 C 6.085938 59.210938 7.394531 60.320312 9.535156 61.746094 C 11.015625 62.734375 12.523438 64.152344 13.113281 65.101562 C 14.171875 66.824219 14.414062 69.152344 13.851562 72.417969 C 13.710938 73.230469 13.484375 74.636719 13.34375 75.535156 C 13.203125 76.4375 12.902344 77.902344 12.683594 78.804688 L 12.261719 80.4375 L 12.492188 80.953125 C 12.671875 81.367188 12.792969 81.507812 13.132812 81.664062 C 13.773438 81.972656 14.261719 82.011719 15.203125 81.824219 C 18.390625 81.191406 22.796875 78.992188 25.007812 76.941406 C 25.964844 76.050781 27.324219 74.269531 28.714844 72.070312 C 29.515625 70.804688 30.792969 69.519531 31.484375 69.269531 C 31.84375 69.140625 32.574219 69.101562 35.179688 69.0625 C 38.410156 69.011719 39.667969 68.933594 42.425781 68.648438 C 43.136719 68.566406 46.273438 68.152344 47.875 67.925781 C 48.613281 67.824219 49.851562 67.65625 50.621094 67.566406 C 54.171875 67.160156 56.171875 66.675781 58.917969 65.566406 C 60.6875 64.863281 62.167969 63.972656 64.367188 62.332031 C 68.84375 58.964844 71.191406 56.449219 72.640625 53.460938 C 75.039062 48.5 75.589844 42.589844 74.089844 37.816406 C 72.113281 31.492188 68.382812 26.839844 62.21875 22.996094 C 57.167969 19.847656 52.441406 18.214844 46.085938 17.433594 C 45.226562 17.324219 44.214844 17.207031 43.828125 17.175781 C 43.445312 17.148438 42.855469 17.105469 42.527344 17.078125 C 41.679688 17.007812 37.351562 16.949219 36.628906 16.988281 Z M 43.277344 21.335938 C 43.578125 21.363281 44.386719 21.421875 45.074219 21.484375 C 53.53125 22.1875 59.847656 24.730469 64.816406 29.421875 C 68.445312 32.859375 70.5625 36.667969 71.152344 40.835938 C 71.300781 41.925781 71.222656 45.144531 71.023438 46.085938 C 70.730469 47.410156 70.203125 48.835938 69.433594 50.359375 C 68.125 52.964844 66.773438 54.816406 64.664062 56.925781 C 60.15625 61.398438 54.589844 63.746094 46.625 64.5 C 45.746094 64.578125 44.734375 64.675781 44.375 64.707031 C 44.015625 64.746094 40.597656 64.777344 36.78125 64.796875 C 30.894531 64.816406 29.773438 64.84375 29.433594 64.964844 C 28.453125 65.332031 28.136719 65.667969 27.324219 67.242188 C 26.796875 68.28125 26.386719 68.953125 25.175781 70.753906 C 23.316406 73.546875 20.597656 75.734375 18.980469 75.734375 C 18.480469 75.734375 18.398438 75.707031 18.089844 75.386719 L 17.761719 75.050781 L 17.890625 73.171875 C 18.171875 69.25 17.679688 64.707031 16.78125 62.894531 C 16.390625 62.09375 16.042969 61.816406 14.0625 60.695312 C 12.164062 59.628906 11.292969 59.015625 10.054688 57.824219 C 8.335938 56.171875 7.136719 54.390625 6.207031 52.074219 C 4.847656 48.71875 4.328125 45.363281 4.597656 41.679688 C 4.828125 38.460938 5.796875 35.09375 7.105469 32.957031 C 9.144531 29.628906 12.523438 26.96875 16.859375 25.253906 C 21.917969 23.265625 31.664062 21.375 37.28125 21.292969 C 37.960938 21.285156 38.550781 21.253906 38.570312 21.226562 C 38.628906 21.175781 42.378906 21.253906 43.277344 21.335938 Z M 43.277344 21.335938 "/>
<path style=" stroke:none;fill-rule:nonzero;fill:rgb(0%,0%,0%);fill-opacity:1;" d="M 31.292969 29.957031 C 31.125 30.097656 30.945312 30.375 30.894531 30.570312 C 30.84375 30.769531 30.703125 32.5625 30.59375 34.550781 C 30.3125 39.222656 30.214844 40.601562 29.992188 42.5 C 29.773438 44.421875 29.742188 44.472656 28.476562 44.757812 C 26.195312 45.273438 24.964844 45.363281 24.566406 45.046875 C 24.21875 44.777344 24.175781 44.410156 24.285156 42.074219 C 24.335938 40.957031 24.425781 38.660156 24.488281 36.976562 C 24.546875 35.144531 24.65625 33.492188 24.757812 32.867188 C 24.847656 32.292969 24.917969 31.671875 24.90625 31.492188 C 24.867188 30.265625 22.796875 29.828125 22.328125 30.9375 C 22.25 31.136719 22.1875 31.609375 22.1875 32.074219 C 22.1875 32.511719 22.097656 34.285156 21.988281 36.015625 C 21.808594 38.9375 21.667969 42.472656 21.539062 47.46875 C 21.46875 49.957031 21.359375 50.875 21.027344 51.894531 C 20.730469 52.804688 20.757812 53.105469 21.21875 53.53125 C 21.949219 54.210938 22.996094 54.210938 23.726562 53.53125 C 24.238281 53.042969 24.355469 52.507812 24.117188 51.636719 C 23.917969 50.855469 23.886719 48.578125 24.085938 48.222656 C 24.226562 47.945312 24.636719 47.847656 26.386719 47.628906 C 29.175781 47.28125 29.132812 47.28125 29.335938 47.480469 C 29.496094 47.648438 29.503906 47.847656 29.433594 50.382812 C 29.375 52.835938 29.382812 53.152344 29.535156 53.539062 C 29.765625 54.101562 30.105469 54.351562 30.652344 54.351562 C 31.234375 54.351562 31.671875 54.164062 32.054688 53.726562 C 32.472656 53.253906 32.53125 52.875 32.324219 52.023438 C 32.074219 50.984375 32.113281 47.46875 32.433594 43.816406 C 32.574219 42.234375 32.742188 40.132812 32.832031 39.15625 C 32.914062 38.175781 33.023438 36.90625 33.082031 36.332031 C 33.253906 34.609375 33.480469 31.601562 33.480469 31.074219 C 33.480469 30.800781 33.414062 30.453125 33.332031 30.304688 C 33.011719 29.691406 31.851562 29.492188 31.292969 29.957031 Z M 31.292969 29.957031 "/>
<path style=" stroke:none;fill-rule:nonzero;fill:rgb(0%,0%,0%);fill-opacity:1;" d="M 52.890625 30.265625 C 52.660156 30.34375 52.421875 30.492188 52.371094 30.601562 C 52.230469 30.847656 51.921875 34.96875 51.683594 39.847656 C 51.382812 45.746094 51.34375 46.964844 51.414062 47.371094 C 51.503906 47.828125 52.171875 48.570312 52.570312 48.660156 C 52.960938 48.746094 53.679688 48.421875 53.960938 48.023438 C 54.222656 47.667969 54.25 47.363281 54.101562 46.28125 C 54.03125 45.847656 54 44.957031 54.03125 44.300781 C 54.050781 43.648438 54.121094 41.847656 54.171875 40.292969 C 54.28125 37.304688 54.480469 34.648438 54.722656 32.769531 C 54.929688 31.144531 54.921875 30.769531 54.640625 30.511719 C 54.390625 30.285156 53.871094 30.085938 53.519531 30.105469 C 53.410156 30.105469 53.132812 30.175781 52.890625 30.265625 Z M 52.890625 30.265625 "/>
<path style=" stroke:none;fill-rule:nonzero;fill:rgb(0%,0%,0%);fill-opacity:1;" d="M 38.328125 32.136719 C 37.800781 32.402344 37.289062 33.222656 37.28125 33.820312 C 37.28125 34.601562 38.019531 34.917969 39.609375 34.808594 C 41.496094 34.691406 41.65625 34.878906 41.429688 36.996094 C 41.347656 37.75 41.207031 39.144531 41.128906 40.09375 C 40.949219 41.957031 40.378906 46.796875 40.136719 48.363281 C 40.058594 48.886719 39.9375 49.382812 39.867188 49.460938 C 39.757812 49.589844 39.539062 49.597656 38.519531 49.539062 C 37.351562 49.480469 37.28125 49.480469 36.75 49.726562 C 35.53125 50.273438 35.601562 51.460938 36.871094 52.09375 C 37.390625 52.351562 37.488281 52.371094 38.769531 52.371094 C 39.519531 52.371094 41.347656 52.421875 42.828125 52.480469 C 45.734375 52.597656 46.136719 52.570312 46.636719 52.144531 C 47.125 51.71875 46.945312 50.539062 46.335938 50.222656 C 46.09375 50.09375 45.785156 50.0625 44.867188 50.085938 C 43.65625 50.105469 43.316406 50.035156 42.976562 49.699219 C 42.675781 49.402344 42.675781 49.300781 43.46875 42.027344 C 43.578125 41.046875 43.738281 39.304688 43.828125 38.164062 C 43.917969 37.015625 44.035156 35.945312 44.085938 35.769531 C 44.257812 35.242188 44.386719 35.195312 45.714844 35.195312 C 46.804688 35.195312 46.964844 35.175781 47.304688 34.96875 C 48.042969 34.5 48.414062 33.402344 47.984375 32.976562 C 47.714844 32.710938 47.464844 32.679688 44.675781 32.628906 C 42.238281 32.589844 41.046875 32.460938 39.9375 32.125 C 39.308594 31.9375 38.710938 31.9375 38.328125 32.136719 Z M 38.328125 32.136719 "/>
<path style=" stroke:none;fill-rule:nonzero;fill:rgb(0%,0%,0%);fill-opacity:1;" d="M 51.421875 51.570312 C 50.714844 51.894531 50.375 52.421875 50.375 53.191406 C 50.375 53.71875 50.644531 54.164062 51.171875 54.507812 C 51.953125 55.023438 53 55.101562 53.613281 54.71875 C 53.910156 54.519531 54.222656 53.953125 54.320312 53.441406 C 54.460938 52.699219 53.882812 51.914062 52.890625 51.550781 C 52.34375 51.332031 51.921875 51.339844 51.421875 51.570312 Z M 51.421875 51.570312 "/>
</g>
</svg>
