<?xml version="1.0" standalone="no"?>
<!DOCTYPE svg PUBLIC "-//W3C//DTD SVG 1.0//EN" "http://www.w3.org/TR/2001/REC-SVG-20010904/DTD/svg10.dtd">
<svg xmlns="http://www.w3.org/2000/svg" xmlns:xlink="http://www.w3.org/1999/xlink" id="body_1" width="75" height="100">

<g transform="matrix(1 0 0 1 -0 0.5)">
	<g>
        <path d="M36.628906 16.988281C 32.671875 17.234375 29.175781 17.691406 25.585938 18.425781C 15.261719 20.542969 8.816406 23.570312 5.148438 28.015625C 2.148438 31.648438 0.488281 36.402344 0.0898438 42.51953C -0.289062 48.339844 1.390625 53.648438 4.917969 57.82422C 6.085938 59.210938 7.394531 60.320312 9.535156 61.746094C 11.015625 62.734375 12.523438 64.15234 13.113281 65.10156C 14.171875 66.82422 14.414062 69.15234 13.851562 72.41797C 13.710938 73.23047 13.484375 74.63672 13.34375 75.53516C 13.203125 76.4375 12.902344 77.90234 12.683594 78.80469L12.683594 78.80469L12.261719 80.4375L12.492188 80.953125C 12.671875 81.36719 12.792969 81.50781 13.132812 81.66406C 13.773438 81.97266 14.261719 82.01172 15.203125 81.82422C 18.390625 81.19141 22.796875 78.99219 25.007812 76.94141C 25.964844 76.05078 27.324219 74.26953 28.714844 72.07031C 29.515625 70.80469 30.792969 69.51953 31.484375 69.26953C 31.84375 69.140625 32.57422 69.10156 35.179688 69.0625C 38.410156 69.01172 39.66797 68.93359 42.42578 68.64844C 43.13672 68.56641 46.273438 68.15234 47.875 67.92578C 48.61328 67.82422 49.851562 67.65625 50.621094 67.56641C 54.171875 67.16016 56.171875 66.67578 58.91797 65.56641C 60.6875 64.86328 62.16797 63.972656 64.36719 62.33203C 68.84375 58.964844 71.19141 56.44922 72.640625 53.460938C 75.03906 48.5 75.58984 42.589844 74.08984 37.816406C 72.11328 31.492188 68.38281 26.839844 62.21875 22.996094C 57.16797 19.847656 52.441406 18.214844 46.085938 17.433594C 45.226562 17.324219 44.214844 17.207031 43.828125 17.175781C 43.445312 17.148438 42.85547 17.105469 42.527344 17.078125C 41.679688 17.007812 37.351562 16.949219 36.628906 16.988281zM43.277344 21.335938C 43.578125 21.363281 44.38672 21.421875 45.07422 21.484375C 53.53125 22.1875 59.847656 24.730469 64.81641 29.421875C 68.44531 32.859375 70.5625 36.66797 71.15234 40.835938C 71.30078 41.92578 71.22266 45.14453 71.02344 46.085938C 70.73047 47.410156 70.203125 48.835938 69.43359 50.359375C 68.125 52.964844 66.77344 54.816406 64.66406 56.92578C 60.15625 61.398438 54.589844 63.746094 46.625 64.5C 45.746094 64.578125 44.734375 64.67578 44.375 64.70703C 44.015625 64.74609 40.597656 64.77734 36.78125 64.796875C 30.894531 64.81641 29.773438 64.84375 29.433594 64.96484C 28.453125 65.33203 28.136719 65.66797 27.324219 67.24219C 26.796875 68.28125 26.386719 68.953125 25.175781 70.75391C 23.316406 73.546875 20.597656 75.734375 18.980469 75.734375C 18.480469 75.734375 18.398438 75.70703 18.089844 75.38672L18.089844 75.38672L17.761719 75.05078L17.890625 73.171875C 18.171875 69.25 17.679688 64.70703 16.78125 62.89453C 16.390625 62.09375 16.042969 61.816406 14.0625 60.695312C 12.164062 59.628906 11.292969 59.015625 10.054688 57.82422C 8.335938 56.171875 7.136719 54.390625 6.207031 52.07422C 4.847656 48.71875 4.328125 45.36328 4.597656 41.679688C 4.828125 38.460938 5.796875 35.09375 7.105469 32.95703C 9.144531 29.628906 12.523438 26.96875 16.859375 25.253906C 21.917969 23.265625 31.664062 21.375 37.28125 21.292969C 37.960938 21.285156 38.55078 21.253906 38.570312 21.226562C 38.628906 21.175781 42.378906 21.253906 43.277344 21.335938z" stroke="none" fill="#FFFFFF" fill-rule="nonzero" />
        <path d="M31.292969 29.957031C 31.125 30.097656 30.945312 30.375 30.894531 30.570312C 30.84375 30.769531 30.703125 32.5625 30.59375 34.55078C 30.3125 39.222656 30.214844 40.601562 29.992188 42.5C 29.773438 44.421875 29.742188 44.472656 28.476562 44.757812C 26.195312 45.273438 24.964844 45.36328 24.566406 45.046875C 24.21875 44.777344 24.175781 44.410156 24.285156 42.07422C 24.335938 40.95703 24.425781 38.660156 24.488281 36.976562C 24.546875 35.14453 24.65625 33.492188 24.757812 32.867188C 24.847656 32.29297 24.917969 31.671875 24.90625 31.492188C 24.867188 30.265625 22.796875 29.828125 22.328125 30.9375C 22.25 31.136719 22.1875 31.609375 22.1875 32.07422C 22.1875 32.51172 22.097656 34.285156 21.988281 36.015625C 21.808594 38.9375 21.667969 42.472656 21.539062 47.46875C 21.46875 49.95703 21.359375 50.875 21.027344 51.89453C 20.730469 52.804688 20.757812 53.10547 21.21875 53.53125C 21.949219 54.210938 22.996094 54.210938 23.726562 53.53125C 24.238281 53.04297 24.355469 52.507812 24.117188 51.63672C 23.917969 50.85547 23.886719 48.578125 24.085938 48.222656C 24.226562 47.945312 24.636719 47.847656 26.386719 47.628906C 29.175781 47.28125 29.132812 47.28125 29.335938 47.48047C 29.496094 47.648438 29.503906 47.847656 29.433594 50.382812C 29.375 52.835938 29.382812 53.152344 29.535156 53.539062C 29.765625 54.101562 30.105469 54.351562 30.652344 54.351562C 31.234375 54.351562 31.671875 54.164062 32.054688 53.726562C 32.472656 53.253906 32.53125 52.875 32.32422 52.023438C 32.07422 50.984375 32.11328 47.46875 32.433594 43.816406C 32.57422 42.234375 32.742188 40.132812 32.83203 39.15625C 32.914062 38.17578 33.023438 36.90625 33.08203 36.33203C 33.253906 34.609375 33.48047 31.601562 33.48047 31.074219C 33.48047 30.800781 33.414062 30.453125 33.33203 30.304688C 33.01172 29.691406 31.851562 29.492188 31.292969 29.957031z" stroke="none" fill="#FFFFFF" fill-rule="nonzero" />
        <path d="M52.890625 30.265625C 52.660156 30.34375 52.421875 30.492188 52.371094 30.601562C 52.23047 30.847656 51.921875 34.96875 51.683594 39.847656C 51.382812 45.746094 51.34375 46.964844 51.414062 47.371094C 51.503906 47.828125 52.171875 48.570312 52.570312 48.660156C 52.960938 48.746094 53.679688 48.421875 53.960938 48.023438C 54.222656 47.66797 54.25 47.36328 54.101562 46.28125C 54.03125 45.847656 54 44.95703 54.03125 44.30078C 54.05078 43.648438 54.121094 41.847656 54.171875 40.29297C 54.28125 37.304688 54.48047 34.648438 54.722656 32.76953C 54.929688 31.144531 54.921875 30.769531 54.640625 30.511719C 54.390625 30.285156 53.871094 30.085938 53.51953 30.105469C 53.410156 30.105469 53.132812 30.175781 52.890625 30.265625z" stroke="none" fill="#FFFFFF" fill-rule="nonzero" />
        <path d="M38.328125 32.13672C 37.80078 32.402344 37.289062 33.222656 37.28125 33.820312C 37.28125 34.601562 38.01953 34.91797 39.609375 34.808594C 41.496094 34.691406 41.65625 34.878906 41.429688 36.996094C 41.347656 37.75 41.20703 39.14453 41.128906 40.09375C 40.94922 41.95703 40.378906 46.796875 40.13672 48.36328C 40.058594 48.88672 39.9375 49.382812 39.867188 49.460938C 39.757812 49.589844 39.539062 49.597656 38.51953 49.539062C 37.351562 49.48047 37.28125 49.48047 36.75 49.726562C 35.53125 50.273438 35.601562 51.460938 36.871094 52.09375C 37.390625 52.351562 37.48828 52.371094 38.76953 52.371094C 39.51953 52.371094 41.347656 52.421875 42.828125 52.48047C 45.734375 52.597656 46.13672 52.570312 46.63672 52.14453C 47.125 51.71875 46.945312 50.539062 46.335938 50.222656C 46.09375 50.09375 45.785156 50.0625 44.867188 50.085938C 43.65625 50.10547 43.316406 50.035156 42.976562 49.69922C 42.67578 49.402344 42.67578 49.30078 43.46875 42.027344C 43.578125 41.046875 43.73828 39.304688 43.828125 38.164062C 43.91797 37.015625 44.035156 35.945312 44.085938 35.76953C 44.257812 35.242188 44.38672 35.195312 45.714844 35.195312C 46.804688 35.195312 46.964844 35.17578 47.304688 34.96875C 48.04297 34.5 48.414062 33.402344 47.984375 32.976562C 47.714844 32.710938 47.464844 32.679688 44.67578 32.628906C 42.23828 32.589844 41.046875 32.460938 39.9375 32.125C 39.308594 31.9375 38.710938 31.9375 38.328125 32.13672z" stroke="none" fill="#FFFFFF" fill-rule="nonzero" />
        <path d="M51.421875 51.570312C 50.714844 51.89453 50.375 52.421875 50.375 53.191406C 50.375 53.71875 50.64453 54.164062 51.171875 54.507812C 51.953125 55.023438 53 55.101562 53.61328 54.71875C 53.910156 54.51953 54.222656 53.953125 54.320312 53.441406C 54.460938 52.69922 53.882812 51.914062 52.890625 51.55078C 52.34375 51.33203 51.921875 51.339844 51.421875 51.570312z" stroke="none" fill="#FFFFFF" fill-rule="nonzero" />
	</g>
</g>
</svg>